<svg width="57" height="57" viewBox="0 0 57 57" fill="none" xmlns="http://www.w3.org/2000/svg">
<g clip-path="url(#clip0_7_80)">
<ellipse cx="27.2197" cy="28.5557" rx="24.2139" ry="24.1025" fill="white"/>
<path d="M30.0141 46.668C27.9359 46.668 26.1398 46.3117 24.6258 45.5992C23.1117 44.8867 21.9391 43.8773 21.1078 42.5711C20.2766 41.2352 19.8461 39.6469 19.8164 37.8062H23.3789C23.3789 39.5578 23.9727 40.9531 25.1602 41.9922C26.3477 43.0016 27.9656 43.5062 30.0141 43.5062C31.9734 43.5062 33.5023 43.0164 34.6008 42.0367C35.7289 41.057 36.293 39.7062 36.293 37.9844C36.293 36.5594 35.907 35.3273 35.1352 34.2883C34.3633 33.2195 33.2797 32.4773 31.8844 32.0617L27.6539 30.7258C25.4273 30.0727 23.7055 28.9594 22.4883 27.3859C21.3008 25.7828 20.707 23.9125 20.707 21.775C20.707 20.0234 21.093 18.5242 21.8648 17.2773C22.6367 16.0008 23.7203 15.0062 25.1156 14.2937C26.5406 13.5812 28.2031 13.225 30.1031 13.225C32.9234 13.225 35.1797 14.0117 36.8719 15.5852C38.5641 17.1586 39.4102 19.2664 39.4102 21.9086H35.8922C35.8922 20.2164 35.3727 18.8805 34.3336 17.9008C33.2945 16.9211 31.8695 16.4312 30.0586 16.4312C28.2477 16.4312 26.8227 16.8766 25.7836 17.7672C24.7742 18.6281 24.2695 19.8602 24.2695 21.4633C24.2695 22.8586 24.6555 24.0758 25.4273 25.1148C26.1992 26.1539 27.2828 26.8961 28.6781 27.3414L32.9086 28.6773C35.1055 29.3602 36.8125 30.518 38.0297 32.1508C39.2469 33.7836 39.8555 35.6984 39.8555 37.8953C39.8555 39.6469 39.4398 41.1906 38.6086 42.5266C37.807 43.8328 36.6641 44.857 35.1797 45.5992C33.725 46.3117 32.0031 46.668 30.0141 46.668Z" fill="#3172AE"/>
<path d="M27.3422 44.5527C25.2641 44.5527 23.468 44.1965 21.9539 43.484C20.4398 42.7715 19.2672 41.7621 18.4359 40.4559C17.6047 39.1199 17.1742 37.5316 17.1445 35.691H20.707C20.707 37.4426 21.3008 38.8379 22.4883 39.877C23.6758 40.8863 25.2938 41.391 27.3422 41.391C29.3016 41.391 30.8305 40.9012 31.9289 39.9215C33.057 38.9418 33.6211 37.591 33.6211 35.8691C33.6211 34.4441 33.2352 33.2121 32.4633 32.173C31.6914 31.1043 30.6078 30.3621 29.2125 29.9465L24.982 28.6105C22.7555 27.9574 21.0336 26.8441 19.8164 25.2707C18.6289 23.6676 18.0352 21.7973 18.0352 19.6598C18.0352 17.9082 18.4211 16.409 19.193 15.1621C19.9648 13.8855 21.0484 12.891 22.4438 12.1785C23.8688 11.466 25.5313 11.1098 27.4313 11.1098C30.2516 11.1098 32.5078 11.8965 34.2 13.4699C35.8922 15.0434 36.7383 17.1512 36.7383 19.7934H33.2203C33.2203 18.1012 32.7008 16.7652 31.6617 15.7855C30.6227 14.8059 29.1977 14.316 27.3867 14.316C25.5758 14.316 24.1508 14.7613 23.1117 15.652C22.1023 16.5129 21.5977 17.7449 21.5977 19.348C21.5977 20.7434 21.9836 21.9605 22.7555 22.9996C23.5273 24.0387 24.6109 24.7809 26.0063 25.2262L30.2367 26.5621C32.4336 27.2449 34.1406 28.4027 35.3578 30.0355C36.575 31.6684 37.1836 33.5832 37.1836 35.7801C37.1836 37.5316 36.768 39.0754 35.9367 40.4113C35.1352 41.7176 33.9922 42.7418 32.5078 43.484C31.0531 44.1965 29.3313 44.5527 27.3422 44.5527Z" fill="#0C1224"/>
</g>
<defs>
<clipPath id="clip0_7_80">
<rect width="57" height="57" fill="white"/>
</clipPath>
</defs>
</svg>
